# xmcd
#
# Track frame offsets: 
#        150
#        12976
#        34881
#        52084
#        74210
#        92883
#        109512
#        135590
#        155934
#        177258
#        196400
#        213572
#        230589
#        247302
#
# Disc length: 3571 seconds
#
# Revision: 0
# Processed by: cddbd v1.5.2PL0 Copyright (c) Steve Scherf et al.
# Submitted via: ExactAudioCopy v1.3
#
DISCID=db0df10e
DTITLE=ΓΙΩΡΓΟΣ ΜΑΖΩΝΑΚΗΣ - ΤΑ ΚΑΛΥΤΕΡΑ
DYEAR=2017
DGENRE=Greek
TTITLE0=ΣΕ ΕΧΩ ΚΑΝΕΙ ΘΕΟ
TTITLE1=ΕΛΑ ΠΙΣΩ ΣΤΗ ΘΕΣΗ ΣΟΥ
TTITLE2=ΕΧΩ ΠΕΡΑΣΕΙ ΚΑΙ ΧΕΙΡΟΤΕΡΑ
TTITLE3=ΣΤΟΝ ΕΡΩΤΑ ΠΑΡΑΝΟΕΙΣ
TTITLE4=ΤΡΕΙΣ ΤΟ ΠΡΩΙ
TTITLE5=ΕΓΩ ΤΗ ΖΩΗ ΜΟΥ
TTITLE6=Η ΚΑΡΔΙΑ ΜΟΥ
TTITLE7=ΕΛΑ ΝΑ ΔΕΙΣ
TTITLE8=ΔΥΣΚΟΛΑ ΦΕΓΓΑΡΙΑ
TTITLE9=ΛΕΙΠΕΙ ΠΑΛΙ Ο ΘΕΟΣ
TTITLE10=Η ΦΙΛΟΣΟΦΙΑ ΜΟΥ
TTITLE11=ΚΑΛΩΣ ΣΑΣ ΒΡΗΚΑ
TTITLE12=ΕΜΕΝΑ ΠΕΣ ΜΟΥ ΠΟΙΟΣ
TTITLE13=ΜΙΛΑ
EXTD=
EXTT0=
EXTT1=
EXTT2=
EXTT3=
EXTT4=
EXTT5=
EXTT6=
EXTT7=
EXTT8=
EXTT9=
EXTT10=
EXTT11=
EXTT12=
EXTT13=
PLAYORDER=
